<svg xmlns="http://www.w3.org/2000/svg" version="1.1" xmlns:xlink="http://www.w3.org/1999/xlink" xmlns:svgjs="http://svgjs.dev/svgjs" width="1000" height="623" viewBox="0 0 1000 623"><g transform="matrix(1,0,0,1,-0.6060606060606233,0.2522267206477409)"><svg viewBox="0 0 396 247" data-background-color="#ffffff" preserveAspectRatio="xMidYMid meet" height="623" width="1000" xmlns="http://www.w3.org/2000/svg" xmlns:xlink="http://www.w3.org/1999/xlink"><g id="tight-bounds" transform="matrix(1,0,0,1,0.2400000000000091,-0.09999999999999432)"><svg viewBox="0 0 395.52 247.2" height="247.2" width="395.52"><g><svg></svg></g><g><svg viewBox="0 0 395.52 247.2" height="247.2" width="395.52"><g transform="matrix(1,0,0,1,75.54432,97.38915591022443)"><svg viewBox="0 0 244.43135999999998 52.42168817955112" height="52.42168817955112" width="244.43135999999998"><g><svg viewBox="0 0 244.43135999999998 52.42168817955112" height="52.42168817955112" width="244.43135999999998"><g><svg viewBox="0 0 244.43135999999998 52.42168817955112" height="52.42168817955112" width="244.43135999999998"><g><svg viewBox="0 0 244.43135999999998 52.42168817955112" height="52.42168817955112" width="244.43135999999998"><g><svg viewBox="0 0 244.43135999999998 52.42168817955112" height="52.42168817955112" width="244.43135999999998"><g><svg viewBox="0 0 244.43135999999998 52.42168817955112" height="52.42168817955112" width="244.43135999999998"><g transform="matrix(1,0,0,1,0,0)"><svg width="244.43135999999998" viewBox="0.7599999904632568 -35.689998626708984 166.4199981689453 35.689998626708984" height="52.42168817955112" data-palette-color="#00c4a7"><path d="M51.2-35.69L42.41 0 31.01 0 27.59-15.55Q27.34-16.53 26.82-19.43 26.29-22.34 26.05-24.29L26.05-24.29Q25.85-22.71 25.42-20.35 24.98-17.99 24.55-16.02 24.12-14.04 21 0L21 0 9.59 0 0.76-35.69 10.06-35.69 13.94-17.8Q15.26-11.87 15.75-8.35L15.75-8.35Q16.06-10.84 16.88-15.11 17.7-19.38 18.41-22.19L18.41-22.19 21.56-35.69 30.49-35.69 33.54-22.19Q34.33-18.95 35.13-14.7 35.94-10.45 36.21-8.35L36.21-8.35Q36.52-11.06 37.94-17.75L37.94-17.75 41.89-35.69 51.2-35.69ZM67.89-12.99L65.45-12.99 65.45 0 55.81 0 55.81-35.69 67.5-35.69Q82.05-35.69 82.05-25.15L82.05-25.15Q82.05-18.95 76-15.55L76-15.55 86.4 0 75.46 0 67.89-12.99ZM65.45-28.39L65.45-20.24 67.26-20.24Q72.31-20.24 72.31-24.71L72.31-24.71Q72.31-28.39 67.36-28.39L67.36-28.39 65.45-28.39ZM99.34 0L89.64 0 89.64-35.69 99.34-35.69 99.34 0ZM122.8-27.81L122.8 0 113.15 0 113.15-27.81 104.44-27.81 104.44-35.69 131.49-35.69 131.49-27.81 122.8-27.81ZM148.67-12.99L146.23-12.99 146.23 0 136.59 0 136.59-35.69 148.28-35.69Q162.83-35.69 162.83-25.15L162.83-25.15Q162.83-18.95 156.78-15.55L156.78-15.55 167.18 0 156.24 0 148.67-12.99ZM146.23-28.39L146.23-20.24 148.04-20.24Q153.09-20.24 153.09-24.71L153.09-24.71Q153.09-28.39 148.13-28.39L148.13-28.39 146.23-28.39Z" opacity="1" transform="matrix(1,0,0,1,0,0)" fill="#00c4a7" class="undefined-text-0" data-fill-palette-color="primary" id="text-0"></path></svg></g></svg></g></svg></g></svg></g></svg></g></svg></g></svg></g><path d="M192.98 91.389L192.98 31.3 8.379 31.3 8.379 215.9 192.98 215.9 192.98 155.811 188.253 155.811 188.253 211.173 13.107 211.173 13.107 36.027 188.253 36.027 188.253 91.389Z" fill="#00c4a7" stroke="transparent" data-fill-palette-color="primary"></path></svg></g><defs></defs></svg><rect width="395.52" height="247.2" fill="none" stroke="none" visibility="hidden"></rect></g></svg></g></svg>